nColumns=19
nRows=76
DataType=double
version=3
OpenSimVersion=4.1
endheader
time	ground_force_calcn_r_vx	ground_force_calcn_r_vy	ground_force_calcn_r_vz	ground_force_calcn_r_px	ground_force_calcn_r_py	ground_force_calcn_r_pz	ground_force_calcn_r_mx	ground_force_calcn_r_my	ground_force_calcn_r_mz	ground_force_calcn_l_vx	ground_force_calcn_l_vy	ground_force_calcn_l_vz	ground_force_calcn_l_px	ground_force_calcn_l_py	ground_force_calcn_l_pz	ground_force_calcn_l_mx	ground_force_calcn_l_my	ground_force_calcn_l_mz
9.66	0.83361	248.272	-22.8329	-0.254928	0	-0.421513	-0.00396025	-1.17947	0.108473	-3.63269	246.914	24.0873	-0.24207	0	-0.759373	-0.0290284	1.97306	0.192479
9.67	0.885752	244.816	-22.3982	-0.254762	0	-0.421656	-0.00396227	-1.09514	0.100195	-3.3607	244.564	24.0295	-0.242099	0	-0.759282	-0.0265611	1.9329	0.189916
9.68	0.99961	241.499	-21.9993	-0.25464	0	-0.421782	-0.00419736	-1.01405	0.0923749	-3.05864	242.43	24.0114	-0.242158	0	-0.759199	-0.0238972	1.89411	0.187602
9.69	1.16711	238.381	-21.6518	-0.25455	0	-0.42188	-0.00458885	-0.937267	0.0851306	-2.72973	240.547	24.0321	-0.242254	0	-0.759121	-0.021074	1.85706	0.185531
9.7	1.37259	235.512	-21.3706	-0.254474	0	-0.421946	-0.00504568	-0.865746	0.0785588	-2.38024	238.948	24.0912	-0.242388	0	-0.759051	-0.0181487	1.82192	0.18369
9.71	1.59684	232.927	-21.1685	-0.25439	0	-0.42197	-0.00548707	-0.800386	0.0727394	-2.01949	237.659	24.1885	-0.242556	0	-0.75899	-0.015199	1.78866	0.182046
9.72	1.82157	230.646	-21.0551	-0.254287	0	-0.421949	-0.00585962	-0.741939	0.0677298	-1.65911	236.7	24.3237	-0.242752	0	-0.758938	-0.0123159	1.75706	0.180559
9.73	2.03389	228.668	-21.0349	-0.254156	0	-0.421881	-0.00614519	-0.6909	0.0635551	-1.31124	236.078	24.4962	-0.242967	0	-0.758899	-0.00959138	1.72685	0.179183
9.74	2.22863	226.975	-21.1074	-0.254005	0	-0.421769	-0.00635769	-0.6475	0.060214	-0.988081	235.796	24.7056	-0.243183	0	-0.758876	-0.00711402	1.69769	0.177876
9.75	2.40757	225.534	-21.2682	-0.253845	0	-0.421617	-0.00653001	-0.611711	0.0576854	-0.702194	235.856	24.953	-0.243386	0	-0.758871	-0.00496973	1.66926	0.176603
9.76	2.57475	224.313	-21.5106	-0.253686	0	-0.421431	-0.00669355	-0.583146	0.055921	-0.46626	236.265	25.2418	-0.243554	0	-0.758889	-0.00323888	1.64122	0.175343
9.77	2.73083	223.291	-21.8273	-0.253532	0	-0.421217	-0.00686186	-0.561073	0.0548464	-0.292297	237.035	25.5779	-0.243671	0	-0.758933	-0.00198934	1.61324	0.174081
9.78	2.86903	222.457	-22.2104	-0.253376	0	-0.420979	-0.00702257	-0.544511	0.0543648	-0.190258	238.176	25.9685	-0.24372	0	-0.75901	-0.00126623	1.58514	0.172829
9.79	2.97615	221.804	-22.6501	-0.253201	0	-0.420717	-0.00714202	-0.532274	0.0543545	-0.166519	239.687	26.4207	-0.243687	0	-0.759124	-0.0010817	1.55699	0.171627
9.8	3.03698	221.326	-23.1336	-0.252983	0	-0.420439	-0.00717827	-0.52313	0.054679	-0.221994	241.546	26.9396	-0.243563	0	-0.759283	-0.00140528	1.52905	0.170534
9.81	3.03925	221.012	-23.6449	-0.252703	0	-0.420148	-0.00709627	-0.516034	0.0552079	-0.350433	243.702	27.5258	-0.243344	0	-0.759488	-0.00215969	1.50192	0.169639
9.82	2.97691	220.839	-24.1655	-0.252346	0	-0.419851	-0.00687793	-0.510233	0.0558325	-0.538542	246.077	28.1743	-0.243033	0	-0.759739	-0.00323136	1.47652	0.169052
9.83	2.85238	220.778	-24.6749	-0.251907	0	-0.419551	-0.00652961	-0.505401	0.0564852	-0.767273	248.572	28.8735	-0.242633	0	-0.760037	-0.00448776	1.45389	0.16888
9.84	2.67701	220.79	-25.1525	-0.251392	0	-0.419256	-0.00608434	-0.501814	0.0571669	-1.01457	251.071	29.6052	-0.242155	0	-0.760378	-0.00579984	1.43525	0.169239
9.85	2.46845	220.842	-25.5805	-0.250813	0	-0.418971	-0.00559273	-0.500356	0.0579573	-1.25953	253.451	30.3475	-0.241608	0	-0.760757	-0.00706627	1.42193	0.170257
9.86	2.24519	220.918	-25.9474	-0.25019	0	-0.4187	-0.00510465	-0.502278	0.058994	-1.4866	255.596	31.0777	-0.240999	0	-0.761173	-0.00823067	1.41512	0.172064
9.87	2.02181	221.025	-26.2487	-0.249543	0	-0.418447	-0.00465606	-0.509004	0.0604486	-1.68787	257.403	31.7748	-0.240337	0	-0.761619	-0.00928329	1.41571	0.174761
9.88	1.80695	221.198	-26.4889	-0.24889	0	-0.418212	-0.00426464	-0.522057	0.0625173	-1.86418	258.795	32.4212	-0.23962	0	-0.76209	-0.0102574	1.42399	0.178394
9.89	1.60416	221.488	-26.682	-0.248244	0	-0.417993	-0.00393285	-0.543011	0.065415	-2.02433	259.725	33.0028	-0.238855	0	-0.762581	-0.0112213	1.43971	0.182941
9.9	1.41398	221.962	-26.8502	-0.247619	0	-0.417785	-0.00365244	-0.57335	0.0693567	-2.18032	260.168	33.5046	-0.238047	0	-0.763079	-0.0122537	1.46218	0.1883
9.91	1.23494	222.689	-27.0209	-0.24703	0	-0.41758	-0.0034058	-0.614146	0.07452	-2.34127	260.127	33.9079	-0.237214	0	-0.763571	-0.0134152	1.49049	0.194287
9.92	1.06429	223.727	-27.2221	-0.246493	0	-0.417375	-0.00316761	-0.66587	0.0810198	-2.50936	259.629	34.1909	-0.236379	0	-0.764037	-0.0147269	1.52371	0.20066
9.93	0.899204	225.123	-27.4766	-0.246022	0	-0.417166	-0.00290896	-0.728283	0.0888878	-2.67741	258.731	34.3331	-0.235573	0	-0.764456	-0.016154	1.56104	0.207147
9.94	0.738532	226.904	-27.7958	-0.245629	0	-0.416952	-0.00260542	-0.800479	0.0980591	-2.83078	257.518	34.3217	-0.234833	0	-0.764809	-0.0176071	1.60172	0.213476
9.95	0.583854	229.076	-28.1772	-0.245323	0	-0.416742	-0.0022457	-0.881103	0.108379	-2.95429	256.099	34.1565	-0.234199	0	-0.76508	-0.0189731	1.64473	0.219361
9.96	0.439635	231.631	-28.6057	-0.245113	0	-0.416543	-0.00183839	-0.968592	0.119618	-3.03718	254.601	33.8519	-0.233703	0	-0.765259	-0.0201466	1.68885	0.224551
9.97	0.313161	234.549	-29.0583	-0.245	0	-0.416367	-0.00141704	-1.06132	0.131488	-3.07337	253.155	33.4323	-0.23337	0	-0.765337	-0.0210366	1.7328	0.228838
9.98	0.214085	237.805	-29.5104	-0.244984	0	-0.416221	-0.00104228	-1.15776	0.143672	-3.0592	251.885	32.9271	-0.233218	0	-0.765314	-0.021562	1.77535	0.232078
9.99	0.152821	241.363	-29.9411	-0.245058	0	-0.416112	-0.000795526	-1.25644	0.155861	-2.99168	250.902	32.3668	-0.233256	0	-0.765191	-0.0216465	1.81541	0.234191
10	0.137866	245.186	-30.3367	-0.245215	0	-0.416043	-0.00076244	-1.35596	0.167772	-2.86845	250.297	31.7804	-0.233481	0	-0.764978	-0.0212227	1.85187	0.235133
10.01	0.173182	249.232	-30.6922	-0.245443	0	-0.416008	-0.00101087	-1.45477	0.179151	-2.68923	250.135	31.1947	-0.233881	0	-0.764686	-0.0202518	1.8837	0.234919
10.02	0.258335	253.453	-31.0086	-0.245729	0	-0.416006	-0.00158092	-1.55104	0.189762	-2.45703	250.453	30.6337	-0.234434	0	-0.764333	-0.0187403	1.91027	0.23365
10.03	0.39018	257.794	-31.2912	-0.246059	0	-0.416031	-0.0024862	-1.64265	0.199386	-2.1779	251.262	30.1175	-0.235118	0	-0.763937	-0.0167385	1.9311	0.231471
10.04	0.563915	262.198	-31.5463	-0.24642	0	-0.416076	-0.00371502	-1.72734	0.207825	-1.85956	252.546	29.6635	-0.235904	0	-0.763514	-0.0143272	1.94576	0.228545
10.05	0.773342	266.603	-31.78	-0.246798	0	-0.416138	-0.0052295	-1.80282	0.214903	-1.5097	254.273	29.2868	-0.236761	0	-0.763087	-0.0116014	1.95399	0.225057
10.06	1.01003	270.938	-31.998	-0.247183	0	-0.416211	-0.00695936	-1.86684	0.220475	-1.13536	256.392	29.0009	-0.237664	0	-0.762671	-0.00866031	1.95572	0.221214
10.07	1.26209	275.128	-32.2049	-0.247561	0	-0.41629	-0.00879497	-1.91724	0.224422	-0.742954	258.834	28.8166	-0.238586	0	-0.762283	-0.00559976	1.95087	0.217195
10.08	1.5141	279.09	-32.4054	-0.247922	0	-0.41637	-0.0105906	-1.95214	0.226664	-0.338687	261.506	28.7389	-0.239504	0	-0.761934	-0.00251157	1.93922	0.213116
10.09	1.74899	282.746	-32.6036	-0.248254	0	-0.416451	-0.0121867	-1.97013	0.227176	0.0704617	264.296	28.7659	-0.2404	0	-0.761632	0.000512009	1.9205	0.209027
10.1	1.95068	286.019	-32.8027	-0.24855	0	-0.416527	-0.0134387	-1.97045	0.225985	0.475793	267.072	28.8868	-0.241262	0	-0.761379	0.00337525	1.89459	0.204922
10.11	2.10715	288.845	-33.0044	-0.248803	0	-0.416596	-0.014249	-1.95324	0.223184	0.866716	269.693	29.0827	-0.242076	0	-0.761177	0.00598279	1.86164	0.200753
10.12	2.21268	291.176	-33.2091	-0.249013	0	-0.416657	-0.0145884	-1.91975	0.218951	1.23145	272.023	29.3286	-0.242829	0	-0.761019	0.00824793	1.82193	0.196435
10.13	2.26804	292.987	-33.4159	-0.249175	0	-0.416709	-0.0144939	-1.87234	0.213545	1.55884	273.946	29.5982	-0.243513	0	-0.7609	0.0101056	1.77593	0.191879
10.14	2.27984	294.279	-33.6229	-0.249292	0	-0.416752	-0.014055	-1.8142	0.207283	1.83949	275.387	29.8687	-0.244113	0	-0.760812	0.0115175	1.72426	0.187014
10.15	2.25837	295.079	-33.8265	-0.249365	0	-0.416786	-0.0133857	-1.74897	0.200494	2.06574	276.322	30.1238	-0.244625	0	-0.760749	0.0124676	1.66771	0.181809
10.16	2.21471	295.437	-34.0196	-0.249396	0	-0.41681	-0.0125952	-1.68017	0.193471	2.23099	276.778	30.3541	-0.245039	0	-0.760702	0.0129566	1.60741	0.176283
10.17	2.15814	295.422	-34.1923	-0.249383	0	-0.416828	-0.0117677	-1.61086	0.186442	2.32882	276.819	30.5542	-0.245351	0	-0.760667	0.0129961	1.5448	0.170509
10.18	2.09438	295.11	-34.3328	-0.249325	0	-0.416842	-0.0109537	-1.54344	0.179562	2.35218	276.533	30.7224	-0.245554	0	-0.76064	0.0126023	1.48158	0.164601
10.19	2.02517	294.571	-34.4286	-0.249216	0	-0.416851	-0.0101717	-1.47953	0.172923	2.29321	276.018	30.8575	-0.24564	0	-0.760615	0.0117945	1.41962	0.158706
10.2	1.94867	293.868	-34.4696	-0.24905	0	-0.416854	-0.00941697	-1.42012	0.166575	2.14428	275.369	30.9576	-0.2456	0	-0.760593	0.0105966	1.36083	0.152987
10.21	1.85996	293.044	-34.4503	-0.248819	0	-0.416852	-0.00866742	-1.36559	0.160539	1.90013	274.662	31.0194	-0.245429	0	-0.760573	0.00904235	1.30706	0.147615
10.22	1.75246	292.133	-34.3704	-0.248516	0	-0.416843	-0.00789371	-1.31588	0.154817	1.5609	273.952	31.0384	-0.245121	0	-0.760556	0.00718029	1.26021	0.14278
10.23	1.61918	291.155	-34.2346	-0.248135	0	-0.416825	-0.00706564	-1.27052	0.14939	1.13388	273.275	31.0118	-0.244675	0	-0.760543	0.00507031	1.22199	0.138674
10.24	1.45413	290.125	-34.0513	-0.247674	0	-0.416795	-0.00615901	-1.22883	0.144225	0.633454	272.65	30.9394	-0.244096	0	-0.76054	0.00277344	1.19374	0.135461
10.25	1.25349	289.058	-33.8315	-0.247133	0	-0.416752	-0.00516072	-1.19008	0.139287	0.079515	272.084	30.8246	-0.24339	0	-0.760547	0.000343748	1.17624	0.133257
10.26	1.01634	287.969	-33.5864	-0.246517	0	-0.416692	-0.00407153	-1.15362	0.134549	-0.504677	271.582	30.674	-0.242575	0	-0.760569	-0.00217353	1.16964	0.132106
10.27	0.745788	286.88	-33.326	-0.245837	0	-0.416615	-0.00290902	-1.119	0.129991	-1.09462	271.145	30.4965	-0.241671	0	-0.760604	-0.00473787	1.1736	0.131998
10.28	0.449046	285.811	-33.0589	-0.245108	0	-0.416523	-0.00170618	-1.08596	0.125609	-1.66654	270.776	30.3026	-0.240703	0	-0.760655	-0.00730808	1.18741	0.132883
10.29	0.136243	284.786	-32.7912	-0.244347	0	-0.416418	-0.000504436	-1.05441	0.121408	-2.19957	270.481	30.1041	-0.239696	0	-0.760723	-0.00983837	1.20983	0.134651
10.3	-0.181587	283.83	-32.5275	-0.243572	0	-0.416303	0.000655403	-1.02443	0.117402	-2.67774	270.263	29.9132	-0.238675	0	-0.760808	-0.0122773	1.23914	0.137151
10.31	-0.493775	282.961	-32.2707	-0.242802	0	-0.416183	0.00173833	-0.99616	0.113609	-3.09031	270.122	29.7417	-0.237663	0	-0.760908	-0.014569	1.27347	0.140215
10.32	-0.790635	282.198	-32.0228	-0.242051	0	-0.416061	0.0027169	-0.96973	0.110042	-3.43123	270.055	29.5994	-0.23668	0	-0.76102	-0.0166556	1.31088	0.143679
10.33	-1.06357	281.555	-31.7857	-0.241335	0	-0.415942	0.00357061	-0.945231	0.10671	-3.69836	270.054	29.4932	-0.235741	0	-0.761146	-0.0184827	1.34961	0.147393
10.34	-1.30521	281.043	-31.5618	-0.240669	0	-0.415828	0.00428529	-0.922725	0.103624	-3.89237	270.107	29.4262	-0.234858	0	-0.761281	-0.0200038	1.38815	0.151229
10.35	-1.50953	280.667	-31.3548	-0.240061	0	-0.41572	0.00485272	-0.902264	0.100797	-4.01598	270.201	29.398	-0.234043	0	-0.761422	-0.0211865	1.42546	0.155091
10.36	-1.67195	280.428	-31.1689	-0.239522	0	-0.41562	0.00526974	-0.88387	0.0982401	-4.07295	270.321	29.4042	-0.233301	0	-0.761565	-0.0220119	1.46093	0.158913
10.37	-1.78962	280.323	-31.0085	-0.239055	0	-0.415529	0.00553829	-0.86751	0.0959614	-4.06728	270.455	29.4376	-0.23264	0	-0.761703	-0.0224718	1.49427	0.162643
10.38	-1.86159	280.346	-30.8773	-0.238667	0	-0.415446	0.00566496	-0.853114	0.0939621	-4.00359	270.598	29.4888	-0.232065	0	-0.761831	-0.0225702	1.5255	0.166243
10.39	-1.88884	280.486	-30.7778	-0.238358	0	-0.415372	0.00566128	-0.840681	0.0922479	-3.88753	270.744	29.5481	-0.231577	0	-0.761943	-0.0223246	1.55478	0.169684
10.4	-1.87442	280.732	-30.7111	-0.238128	0	-0.415308	0.00554306	-0.830185	0.0908191	-3.72593	270.893	29.6072	-0.231175	0	-0.762035	-0.0217639	1.58234	0.172942
10.41	-1.82272	281.069	-30.6767	-0.237976	0	-0.415252	0.00532817	-0.821617	0.0896739	-3.52645	271.045	29.66	-0.230855	0	-0.762107	-0.0209253	1.60833	0.175997
